<?xml version="1.0" encoding="UTF-8" standalone="no"?>
<svg
   xmlns:dc="http://purl.org/dc/elements/1.1/"
   xmlns:cc="http://creativecommons.org/ns#"
   xmlns:rdf="http://www.w3.org/1999/02/22-rdf-syntax-ns#"
   xmlns:svg="http://www.w3.org/2000/svg"
   xmlns="http://www.w3.org/2000/svg"
   xmlns:xlink="http://www.w3.org/1999/xlink"
   xmlns:sodipodi="http://sodipodi.sourceforge.net/DTD/sodipodi-0.dtd"
   xmlns:inkscape="http://www.inkscape.org/namespaces/inkscape"
   version="1.1"
   id="svg2"
   viewBox="0 0 32 32"
   height="32"
   width="32"
   inkscape:version="0.91 r13725"
   sodipodi:docname="icon.svg"
   inkscape:export-filename="C:\Users\Manuel\Documents\GitHub\icon16.png"
   inkscape:export-xdpi="45"
   inkscape:export-ydpi="45">
  <sodipodi:namedview
     pagecolor="#ffffff"
     bordercolor="#666666"
     borderopacity="1"
     objecttolerance="10"
     gridtolerance="10"
     guidetolerance="10"
     inkscape:pageopacity="0"
     inkscape:pageshadow="2"
     inkscape:window-width="1920"
     inkscape:window-height="1021"
     id="namedview22"
     showgrid="false"
     inkscape:zoom="20.85965"
     inkscape:cx="22.863864"
     inkscape:cy="11.638312"
     inkscape:window-x="1912"
     inkscape:window-y="-8"
     inkscape:window-maximized="1"
     inkscape:current-layer="layer1" />
  <defs
     id="defs4">
    <filter
       height="1.1082563"
       y="-0.05412817"
       width="1.1407948"
       x="-0.0703974"
       id="filter4404"
       style="color-interpolation-filters:sRGB">
      <feGaussianBlur
         id="feGaussianBlur4406"
         stdDeviation="0.47164553" />
    </filter>
    <filter
       height="1.18"
       y="-0.09"
       width="1.18"
       x="-0.09"
       id="filter4380"
       style="color-interpolation-filters:sRGB">
      <feGaussianBlur
         id="feGaussianBlur4382"
         stdDeviation="1.1190228" />
    </filter>
    <filter
       height="1.1592004"
       y="-0.079600178"
       width="1.2070514"
       x="-0.10352571"
       id="filter4388"
       style="color-interpolation-filters:sRGB">
      <feGaussianBlur
         id="feGaussianBlur4390"
         stdDeviation="0.64378634" />
    </filter>
    <filter
       height="1.18"
       y="-0.09"
       width="1.18"
       x="-0.09"
       id="filter4398"
       style="color-interpolation-filters:sRGB">
      <feGaussianBlur
         id="feGaussianBlur4400"
         stdDeviation="1.1190228" />
    </filter>
    <filter
       inkscape:collect="always"
       style="color-interpolation-filters:sRGB"
       id="filter4256"
       x="-0.029999997"
       width="1.06"
       y="-0.030000003"
       height="1.06">
      <feGaussianBlur
         inkscape:collect="always"
         stdDeviation="0.37300754"
         id="feGaussianBlur4258" />
    </filter>
    <filter
       inkscape:collect="always"
       style="color-interpolation-filters:sRGB"
       id="filter4284"
       x="-0.10352571"
       width="1.2070514"
       y="-0.079600178"
       height="1.1592004">
      <feGaussianBlur
         inkscape:collect="always"
         stdDeviation="0.64378634"
         id="feGaussianBlur4286" />
    </filter>
  </defs>
  <metadata
     id="metadata7">
    <rdf:RDF>
      <cc:Work
         rdf:about="">
        <dc:format>image/svg+xml</dc:format>
        <dc:type
           rdf:resource="http://purl.org/dc/dcmitype/StillImage" />
        <dc:title />
      </cc:Work>
    </rdf:RDF>
  </metadata>
  <g
     transform="translate(0,-1020.3622)"
     id="layer1">
    <path
       d="M 26.550248,1046.9124 16,1051.2825 5.4497524,1046.9124 1.0796967,1036.3622 5.4497523,1025.8119 16,1021.4419 l 10.550248,4.37 4.370055,10.5503 z"
       id="octagon"
       style="fill:#004466;fill-opacity:1;stroke:none;stroke-width:1;stroke-miterlimit:4;stroke-dasharray:none;stroke-dashoffset:0;stroke-opacity:1;" />
    <use
       style="filter:url(#filter4256)"
       id="use4392"
       xlink:href="#octagon"
       y="0"
       x="0" />
    <path
       style="font-style:normal;font-variant:normal;font-weight:bold;font-stretch:normal;font-size:24.82999802px;line-height:125%;font-family:Aharoni;-inkscape-font-specification:'Aharoni Bold';letter-spacing:0px;word-spacing:0px;fill:#ffffff;fill-opacity:1;stroke:none;stroke-width:1px;stroke-linecap:butt;stroke-linejoin:miter;stroke-opacity:1"
       id="delta"
       d="m 21.269476,1030.3405 q -1.479131,-0.8487 -5.346694,-0.8487 -2.061084,0 -2.061084,1.1882 0,1.1275 2.824897,1.5519 2.812773,0.4243 4.510136,1.7822 2.061084,1.6367 2.061084,4.9224 0,3.2856 -1.988339,5.189 -1.98834,1.8914 -5.455811,1.8914 -3.479594,0 -5.480058,-1.8914 -2.0004634,-1.9034 -2.0004634,-5.2375 0,-2.5218 1.9883394,-4.4738 0.618325,-0.6062 1.394263,-0.9942 -1.7943555,-0.9578 -1.7943555,-2.8855 0,-3.9282 6.4014835,-3.9282 3.212866,0 4.946602,0.8487 l 0,2.8855 z m -6.498477,4.6556 q -0.642573,0.2668 -1.151782,0.9457 -0.800185,1.0548 -0.800185,2.9583 0,1.9035 0.788061,2.9704 0.800186,1.0669 2.182324,1.0669 1.370015,0 2.1702,-1.0791 0.800186,-1.0911 0.800186,-2.9097 0,-1.8065 -0.860806,-2.7158 -0.860805,-0.9214 -2.061084,-1.0548 -0.557705,-0.061 -1.066914,-0.1819 z" />
    <use
       style="filter:url(#filter4284)"
       id="deltaBlur"
       xlink:href="#delta"
       y="0"
       x="0" />
    <use
       style="filter:url(#filter4380)"
       id="octagonBlur"
       xlink:href="#path4148"
       y="0"
       x="0" />
    <use
       style="filter:url(#filter4404)"
       id="use4322"
       xlink:href="#text4318"
       y="0"
       x="0" />
    <g
       id="text4318"
       style="font-style:normal;font-variant:normal;font-weight:bold;font-stretch:normal;font-size:24.82999802px;line-height:125%;font-family:Aharoni;-inkscape-font-specification:'Aharoni Bold';letter-spacing:0px;word-spacing:0px;fill:#ffffff;fill-opacity:1;stroke:none;stroke-width:1px;stroke-linecap:butt;stroke-linejoin:miter;stroke-opacity:1" />
  </g>
</svg>
